# Blender v2.76 (sub 0) OBJ File: ''
# www.blender.org
mtllib untitled.mtl
o Circle
v 0.000000 0.000000 -0.021153
v -0.004127 0.000000 -0.020747
v -0.008095 0.000000 -0.019543
v -0.011752 0.000000 -0.017588
v -0.014958 0.000000 -0.014958
v -0.017588 0.000000 -0.011752
v -0.019543 0.000000 -0.008095
v -0.020747 0.000000 -0.004127
v -0.021153 0.000000 -0.000000
v -0.020747 0.000000 0.004127
v -0.019543 0.000000 0.008095
v -0.017588 0.000000 0.011752
v -0.014958 0.000000 0.014958
v -0.011752 0.000000 0.017588
v -0.008095 0.000000 0.019543
v -0.004127 0.000000 0.020747
v 0.000000 0.000000 0.021153
v 0.004127 0.000000 0.020747
v 0.008095 0.000000 0.019543
v 0.011752 0.000000 0.017588
v 0.014958 0.000000 0.014958
v 0.017588 0.000000 0.011752
v 0.019543 0.000000 0.008095
v 0.020747 0.000000 0.004127
v 0.021153 0.000000 -0.000000
v 0.020747 0.000000 -0.004127
v 0.019543 0.000000 -0.008095
v 0.017588 0.000000 -0.011752
v 0.014958 0.000000 -0.014958
v 0.011752 0.000000 -0.017588
v 0.008095 0.000000 -0.019543
v 0.004127 0.000000 -0.020747
v 0.000000 0.953166 -0.021153
v -0.004127 0.953166 -0.020747
v -0.008095 0.953166 -0.019543
v -0.011752 0.953166 -0.017588
v -0.014958 0.953166 -0.014958
v -0.017588 0.953166 -0.011752
v -0.019543 0.953166 -0.008095
v -0.020747 0.953166 -0.004127
v -0.021153 0.953166 -0.000000
v -0.020747 0.953166 0.004127
v -0.019543 0.953166 0.008095
v -0.017588 0.953166 0.011752
v -0.014958 0.953166 0.014958
v -0.011752 0.953166 0.017588
v -0.008095 0.953166 0.019543
v -0.004127 0.953166 0.020747
v 0.000000 0.953166 0.021153
v 0.004127 0.953166 0.020747
v 0.008095 0.953166 0.019543
v 0.011752 0.953166 0.017588
v 0.014958 0.953166 0.014958
v 0.017588 0.953166 0.011752
v 0.019543 0.953166 0.008095
v 0.020747 0.953166 0.004127
v 0.021153 0.953166 -0.000000
v 0.020747 0.953166 -0.004127
v 0.019543 0.953166 -0.008095
v 0.017588 0.953166 -0.011752
v 0.014958 0.953166 -0.014958
v 0.011752 0.953166 -0.017588
v 0.008095 0.953166 -0.019543
v 0.004127 0.953166 -0.020747
v -0.000001 0.962354 -0.072168
v -0.014081 0.962354 -0.070782
v -0.027619 0.962354 -0.066675
v -0.040096 0.962354 -0.060006
v -0.051032 0.962354 -0.051030
v -0.060008 0.962354 -0.040094
v -0.066677 0.962354 -0.027617
v -0.070784 0.962354 -0.014079
v -0.072170 0.962354 0.000001
v -0.070784 0.962354 0.014080
v -0.066677 0.962354 0.027619
v -0.060008 0.962354 0.040096
v -0.051032 0.962354 0.051032
v -0.040096 0.962354 0.060007
v -0.027619 0.962354 0.066677
v -0.014080 0.962354 0.070783
v -0.000001 0.962354 0.072170
v 0.014079 0.962354 0.070783
v 0.027617 0.962354 0.066677
v 0.040094 0.962354 0.060007
v 0.051030 0.962354 0.051032
v 0.060006 0.962354 0.040096
v 0.066675 0.962354 0.027619
v 0.070782 0.962354 0.014080
v 0.072168 0.962354 0.000001
v 0.070781 0.962354 -0.014079
v 0.066675 0.962354 -0.027617
v 0.060005 0.962354 -0.040094
v 0.051030 0.962354 -0.051031
v 0.040094 0.962354 -0.060006
v 0.027617 0.962354 -0.066675
v 0.014078 0.962354 -0.070782
v -0.000061 1.129238 0.000051
v -0.000000 0.002505 -0.000000
vn 0.634400 0.000000 -0.773000
vn -0.881900 0.000000 0.471400
vn 0.471400 0.000000 -0.881900
vn 0.098000 0.000000 0.995200
vn -0.773000 0.000000 0.634400
vn 0.290300 0.000000 -0.956900
vn 0.290300 0.000000 0.956900
vn -0.634400 0.000000 0.773000
vn 0.098000 0.000000 -0.995200
vn 0.471400 0.000000 0.881900
vn -0.471400 0.000000 0.881900
vn -0.098000 0.000000 -0.995200
vn 0.634400 0.000000 0.773000
vn -0.290300 0.000000 0.956900
vn -0.290300 0.000000 -0.956900
vn 0.773000 0.000000 0.634400
vn -0.098000 0.000000 0.995200
vn -0.471400 0.000000 -0.881900
vn 0.881900 0.000000 0.471400
vn -0.634400 0.000000 -0.773000
vn 0.956900 0.000000 0.290300
vn -0.773000 0.000000 -0.634400
vn 0.995200 0.000000 0.098000
vn -0.881900 0.000000 -0.471400
vn 0.995200 0.000000 -0.098000
vn -0.956900 0.000000 -0.290300
vn 0.956900 0.000000 -0.290300
vn -0.995200 0.000000 -0.098000
vn 0.881900 0.000000 -0.471400
vn -0.995200 0.000000 0.098000
vn 0.773000 0.000000 -0.634400
vn -0.956900 0.000000 0.290300
vn -0.137700 0.984000 -0.113000
vn 0.177200 0.984000 0.017500
vn -0.157000 0.984000 -0.083900
vn 0.177200 0.984000 -0.017500
vn -0.170400 0.984000 -0.051700
vn 0.170400 0.984000 -0.051700
vn -0.177200 0.984000 -0.017500
vn 0.157000 0.984000 -0.083900
vn -0.177200 0.984000 0.017400
vn 0.137700 0.984000 -0.113000
vn -0.170400 0.984000 0.051700
vn 0.113000 0.984000 -0.137600
vn -0.157100 0.984000 0.084000
vn 0.083900 0.984000 -0.157000
vn 0.017500 0.984000 0.177200
vn -0.137700 0.984000 0.113000
vn 0.051700 0.984000 -0.170400
vn 0.051700 0.984000 0.170400
vn -0.113000 0.984000 0.137700
vn 0.017500 0.984000 -0.177200
vn 0.083900 0.984000 0.157000
vn -0.083900 0.984000 0.157100
vn -0.017500 0.984000 -0.177200
vn 0.113000 0.984000 0.137700
vn -0.051700 0.984000 0.170400
vn -0.051700 0.984000 -0.170400
vn 0.137700 0.984000 0.113000
vn -0.017500 0.984000 0.177200
vn -0.083900 0.984000 -0.157100
vn 0.157000 0.984000 0.083900
vn -0.113000 0.984000 -0.137700
vn 0.170400 0.984000 0.051700
vn -0.914000 -0.395600 -0.090000
vn 0.810200 -0.395000 -0.433100
vn -0.914000 -0.395600 0.090000
vn 0.710200 -0.395000 -0.582800
vn -0.878900 -0.395600 0.266600
vn 0.582800 -0.395000 -0.710200
vn -0.809900 -0.395700 0.432900
vn 0.433100 -0.395000 -0.810200
vn 0.090000 -0.395500 0.914000
vn -0.709900 -0.395700 0.582600
vn 0.266700 -0.395000 -0.879100
vn 0.266600 -0.395500 0.878900
vn -0.582600 -0.395700 0.709900
vn 0.090000 -0.395100 -0.914200
vn 0.433000 -0.395400 0.810100
vn -0.432900 -0.395700 0.810000
vn -0.090000 -0.395100 -0.914200
vn 0.582700 -0.395300 0.710000
vn -0.266600 -0.395600 0.878900
vn -0.266700 -0.395200 -0.879100
vn 0.710100 -0.395200 0.582700
vn -0.090000 -0.395600 0.914000
vn -0.433000 -0.395200 -0.810100
vn 0.810100 -0.395200 0.433000
vn -0.582700 -0.395300 -0.710000
vn 0.879100 -0.395100 0.266700
vn -0.710000 -0.395400 -0.582700
vn 0.914200 -0.395100 0.090000
vn -0.810000 -0.395400 -0.433000
vn 0.914300 -0.395000 -0.090000
vn -0.878900 -0.395500 -0.266600
vn 0.879100 -0.395000 -0.266700
vn 0.113100 0.993000 -0.034300
vn -0.091400 0.993000 0.075000
vn 0.117600 0.993000 -0.011600
vn -0.104200 0.993000 0.055700
vn 0.117600 0.993000 0.011600
vn -0.113100 0.993000 0.034300
vn 0.113100 0.993000 0.034300
vn -0.117600 0.993000 0.011600
vn 0.104200 0.993000 0.055700
vn -0.117600 0.993000 -0.011600
vn 0.091400 0.993000 0.075000
vn -0.113100 0.993000 -0.034300
vn 0.075000 0.993000 0.091400
vn -0.104200 0.993000 -0.055700
vn 0.055700 0.993000 0.104200
vn 0.011600 0.993000 -0.117600
vn -0.091400 0.993000 -0.075000
vn 0.034300 0.993000 0.113100
vn 0.034300 0.993000 -0.113100
vn -0.075000 0.993000 -0.091400
vn 0.011600 0.993000 0.117600
vn 0.055700 0.993000 -0.104200
vn -0.055700 0.993000 -0.104200
vn -0.011600 0.993000 0.117600
vn 0.075000 0.993000 -0.091400
vn -0.034300 0.993000 -0.113100
vn -0.034300 0.993000 0.113100
vn 0.091400 0.993000 -0.075000
vn -0.011600 0.993000 -0.117600
vn -0.055700 0.993000 0.104200
vn 0.104200 0.993000 -0.055700
vn -0.075000 0.993000 0.091400
usemtl None
s off
f 14//1 13//1 45//1 46//1
f 28//2 27//2 59//2 60//2
f 15//3 14//3 46//3 47//3
f 2//4 1//4 33//4 34//4
f 29//5 28//5 60//5 61//5
f 16//6 15//6 47//6 48//6
f 3//7 2//7 34//7 35//7
f 30//8 29//8 61//8 62//8
f 17//9 16//9 48//9 49//9
f 4//10 3//10 35//10 36//10
f 31//11 30//11 62//11 63//11
f 18//12 17//12 49//12 50//12
f 5//13 4//13 36//13 37//13
f 32//14 31//14 63//14 64//14
f 19//15 18//15 50//15 51//15
f 6//16 5//16 37//16 38//16
f 1//17 32//17 64//17 33//17
f 20//18 19//18 51//18 52//18
f 7//19 6//19 38//19 39//19
f 21//20 20//20 52//20 53//20
f 8//21 7//21 39//21 40//21
f 22//22 21//22 53//22 54//22
f 9//23 8//23 40//23 41//23
f 23//24 22//24 54//24 55//24
f 10//25 9//25 41//25 42//25
f 24//26 23//26 55//26 56//26
f 11//27 10//27 42//27 43//27
f 25//28 24//28 56//28 57//28
f 12//29 11//29 43//29 44//29
f 26//30 25//30 57//30 58//30
f 13//31 12//31 44//31 45//31
f 27//32 26//32 58//32 59//32
f 54//33 53//33 85//33 86//33
f 41//34 40//34 72//34 73//34
f 55//35 54//35 86//35 87//35
f 42//36 41//36 73//36 74//36
f 56//37 55//37 87//37 88//37
f 43//38 42//38 74//38 75//38
f 57//39 56//39 88//39 89//39
f 44//40 43//40 75//40 76//40
f 58//41 57//41 89//41 90//41
f 45//42 44//42 76//42 77//42
f 59//43 58//43 90//43 91//43
f 46//44 45//44 77//44 78//44
f 60//45 59//45 91//45 92//45
f 47//46 46//46 78//46 79//46
f 34//47 33//47 65//47 66//47
f 61//48 60//48 92//48 93//48
f 48//49 47//49 79//49 80//49
f 35//50 34//50 66//50 67//50
f 62//51 61//51 93//51 94//51
f 49//52 48//52 80//52 81//52
f 36//53 35//53 67//53 68//53
f 63//54 62//54 94//54 95//54
f 50//55 49//55 81//55 82//55
f 37//56 36//56 68//56 69//56
f 64//57 63//57 95//57 96//57
f 51//58 50//58 82//58 83//58
f 38//59 37//59 69//59 70//59
f 33//60 64//60 96//60 65//60
f 52//61 51//61 83//61 84//61
f 39//62 38//62 70//62 71//62
f 53//63 52//63 84//63 85//63
f 40//64 39//64 71//64 72//64
f 89//65 88//65 97//65
f 76//66 75//66 97//66
f 90//67 89//67 97//67
f 77//68 76//68 97//68
f 91//69 90//69 97//69
f 78//70 77//70 97//70
f 92//71 91//71 97//71
f 79//72 78//72 97//72
f 66//73 65//73 97//73
f 93//74 92//74 97//74
f 80//75 79//75 97//75
f 67//76 66//76 97//76
f 94//77 93//77 97//77
f 81//78 80//78 97//78
f 68//79 67//79 97//79
f 95//80 94//80 97//80
f 82//81 81//81 97//81
f 69//82 68//82 97//82
f 96//83 95//83 97//83
f 83//84 82//84 97//84
f 70//85 69//85 97//85
f 65//86 96//86 97//86
f 84//87 83//87 97//87
f 71//88 70//88 97//88
f 85//89 84//89 97//89
f 72//90 71//90 97//90
f 86//91 85//91 97//91
f 73//92 72//92 97//92
f 87//93 86//93 97//93
f 74//94 73//94 97//94
f 88//95 87//95 97//95
f 75//96 74//96 97//96
f 26//97 27//97 98//97
f 12//98 13//98 98//98
f 25//99 26//99 98//99
f 11//100 12//100 98//100
f 24//101 25//101 98//101
f 10//102 11//102 98//102
f 23//103 24//103 98//103
f 9//104 10//104 98//104
f 22//105 23//105 98//105
f 8//106 9//106 98//106
f 21//107 22//107 98//107
f 7//108 8//108 98//108
f 20//109 21//109 98//109
f 6//110 7//110 98//110
f 19//111 20//111 98//111
f 32//112 1//112 98//112
f 5//113 6//113 98//113
f 18//114 19//114 98//114
f 31//115 32//115 98//115
f 4//116 5//116 98//116
f 17//117 18//117 98//117
f 30//118 31//118 98//118
f 3//119 4//119 98//119
f 16//120 17//120 98//120
f 29//121 30//121 98//121
f 2//122 3//122 98//122
f 15//123 16//123 98//123
f 28//124 29//124 98//124
f 1//125 2//125 98//125
f 14//126 15//126 98//126
f 27//127 28//127 98//127
f 13//128 14//128 98//128
